<?xml version="1.0" encoding="UTF-8" standalone="no"?>
<!DOCTYPE svg PUBLIC "-//W3C//DTD SVG 1.1//EN" "http://www.w3.org/Graphics/SVG/1.1/DTD/svg11.dtd">
<svg width="100%" height="100%" viewBox="0 0 737 98" version="1.1" xmlns="http://www.w3.org/2000/svg" xmlns:xlink="http://www.w3.org/1999/xlink" xml:space="preserve" xmlns:serif="http://www.serif.com/" style="fill-rule:evenodd;clip-rule:evenodd;stroke-linejoin:round;stroke-miterlimit:2;">
    <g transform="matrix(1,0,0,1,-37.5813,-11.6641)">
        <g transform="matrix(1,0,0,1,-82.4134,-123.235)">
            <g transform="matrix(130.107,0,0,130.107,110.783,232.606)">
                <path d="M0.649,-0.286L0.249,-0.286L0.249,-0.414L0.649,-0.414L0.649,-0.286ZM0.707,-0L0.249,-0C0.231,-0 0.212,-0.003 0.191,-0.009C0.17,-0.015 0.151,-0.026 0.133,-0.04C0.115,-0.054 0.101,-0.072 0.089,-0.095C0.077,-0.118 0.071,-0.145 0.071,-0.178L0.071,-0.636C0.071,-0.645 0.072,-0.653 0.076,-0.661C0.079,-0.669 0.083,-0.676 0.089,-0.682C0.095,-0.688 0.102,-0.692 0.109,-0.695C0.117,-0.699 0.126,-0.7 0.135,-0.7L0.707,-0.7L0.707,-0.573L0.198,-0.573L0.198,-0.178C0.198,-0.162 0.202,-0.149 0.211,-0.14C0.22,-0.131 0.233,-0.127 0.25,-0.127L0.707,-0.127L0.707,-0Z" style="fill-rule:nonzero;"/>
            </g>
            <g transform="matrix(130.107,0,0,130.107,208.681,232.606)">
                <path d="M0.521,-0.401L0.236,-0.401C0.219,-0.401 0.206,-0.397 0.197,-0.388C0.188,-0.379 0.184,-0.367 0.184,-0.35L0.184,-0L0.057,-0L0.057,-0.35C0.057,-0.372 0.059,-0.391 0.065,-0.409C0.07,-0.426 0.078,-0.441 0.087,-0.454C0.096,-0.468 0.107,-0.479 0.119,-0.488C0.131,-0.497 0.144,-0.505 0.157,-0.511C0.17,-0.517 0.184,-0.521 0.197,-0.524C0.211,-0.526 0.223,-0.528 0.235,-0.528L0.521,-0.528L0.521,-0.401Z" style="fill-rule:nonzero;"/>
            </g>
            <g transform="matrix(130.107,0,0,130.107,279.642,232.606)">
                <path d="M0.188,-0.636L0.062,-0.636L0.062,-0.751L0.188,-0.751L0.188,-0.636ZM0.188,-0L0.062,-0L0.062,-0.528L0.188,-0.528L0.188,-0Z" style="fill-rule:nonzero;"/>
            </g>
            <g transform="matrix(130.107,0,0,130.107,312.232,232.606)">
                <path d="M0.571,-0L0.227,-0C0.209,-0 0.19,-0.003 0.169,-0.009C0.148,-0.015 0.129,-0.026 0.111,-0.04C0.093,-0.054 0.079,-0.072 0.067,-0.095C0.055,-0.118 0.049,-0.145 0.049,-0.178L0.049,-0.35C0.049,-0.362 0.05,-0.375 0.053,-0.388C0.056,-0.402 0.06,-0.415 0.066,-0.428C0.072,-0.441 0.079,-0.454 0.089,-0.466C0.098,-0.478 0.109,-0.488 0.122,-0.498C0.135,-0.507 0.151,-0.514 0.168,-0.52C0.185,-0.525 0.205,-0.528 0.227,-0.528L0.571,-0.528L0.571,-0.401L0.227,-0.401C0.21,-0.401 0.197,-0.397 0.189,-0.388C0.18,-0.38 0.176,-0.367 0.176,-0.349L0.176,-0.178C0.176,-0.162 0.18,-0.149 0.189,-0.14C0.198,-0.131 0.211,-0.127 0.228,-0.127L0.571,-0.127L0.571,-0Z" style="fill-rule:nonzero;"/>
            </g>
            <g transform="matrix(130.107,0,0,130.107,428.553,232.606)">
                <path d="M0.772,-0.154C0.772,-0.138 0.77,-0.121 0.764,-0.104C0.759,-0.086 0.75,-0.069 0.738,-0.054C0.726,-0.038 0.71,-0.026 0.69,-0.015C0.671,-0.005 0.647,-0 0.619,-0L0.137,-0C0.128,-0 0.119,-0.002 0.111,-0.005C0.104,-0.008 0.097,-0.013 0.091,-0.018C0.085,-0.024 0.081,-0.031 0.078,-0.039C0.074,-0.046 0.073,-0.055 0.073,-0.064L0.073,-0.636C0.073,-0.645 0.074,-0.653 0.078,-0.661C0.081,-0.669 0.085,-0.676 0.091,-0.682C0.097,-0.688 0.104,-0.692 0.111,-0.695C0.119,-0.699 0.128,-0.7 0.137,-0.7L0.562,-0.7C0.577,-0.7 0.594,-0.697 0.612,-0.692C0.63,-0.686 0.646,-0.677 0.662,-0.665C0.677,-0.653 0.69,-0.637 0.7,-0.618C0.711,-0.598 0.716,-0.574 0.716,-0.546L0.716,-0.522C0.716,-0.5 0.712,-0.475 0.705,-0.449C0.697,-0.424 0.685,-0.399 0.668,-0.376C0.683,-0.367 0.696,-0.357 0.709,-0.344C0.721,-0.332 0.732,-0.318 0.742,-0.301C0.751,-0.285 0.759,-0.267 0.764,-0.246C0.77,-0.226 0.772,-0.203 0.772,-0.178L0.772,-0.154ZM0.646,-0.178C0.646,-0.195 0.643,-0.21 0.638,-0.223C0.632,-0.236 0.625,-0.247 0.616,-0.257C0.606,-0.266 0.595,-0.274 0.582,-0.279C0.568,-0.284 0.553,-0.286 0.537,-0.286L0.25,-0.286L0.25,-0.414L0.479,-0.414C0.496,-0.414 0.511,-0.417 0.524,-0.422C0.538,-0.427 0.549,-0.434 0.559,-0.443C0.568,-0.453 0.575,-0.464 0.58,-0.477C0.585,-0.49 0.588,-0.505 0.588,-0.522L0.588,-0.546C0.588,-0.564 0.579,-0.573 0.562,-0.573L0.2,-0.573L0.2,-0.127L0.619,-0.127C0.621,-0.127 0.624,-0.127 0.627,-0.127C0.63,-0.128 0.633,-0.129 0.636,-0.13C0.638,-0.132 0.641,-0.135 0.643,-0.139C0.645,-0.143 0.646,-0.148 0.646,-0.155L0.646,-0.178Z" style="fill-rule:nonzero;"/>
            </g>
            <g transform="matrix(130.107,0,0,130.107,533.82,232.606)">
                <path d="M0.521,-0.401L0.236,-0.401C0.219,-0.401 0.206,-0.397 0.197,-0.388C0.188,-0.379 0.184,-0.367 0.184,-0.35L0.184,-0L0.057,-0L0.057,-0.35C0.057,-0.372 0.059,-0.391 0.065,-0.409C0.07,-0.426 0.078,-0.441 0.087,-0.454C0.096,-0.468 0.107,-0.479 0.119,-0.488C0.131,-0.497 0.144,-0.505 0.157,-0.511C0.17,-0.517 0.184,-0.521 0.197,-0.524C0.211,-0.526 0.223,-0.528 0.235,-0.528L0.521,-0.528L0.521,-0.401Z" style="fill-rule:nonzero;"/>
            </g>
            <g transform="matrix(130.107,0,0,130.107,604.781,232.606)">
                <path d="M0.637,-0.064C0.637,-0.055 0.635,-0.046 0.632,-0.039C0.629,-0.031 0.624,-0.024 0.618,-0.018C0.613,-0.013 0.606,-0.008 0.598,-0.005C0.591,-0.002 0.583,-0 0.574,-0L0.287,-0C0.271,-0 0.254,-0.002 0.237,-0.005C0.219,-0.009 0.201,-0.015 0.184,-0.023C0.167,-0.031 0.15,-0.041 0.134,-0.053C0.118,-0.065 0.104,-0.08 0.092,-0.097C0.08,-0.115 0.07,-0.135 0.063,-0.158C0.055,-0.181 0.052,-0.206 0.052,-0.235L0.052,-0.528L0.179,-0.528L0.179,-0.235C0.179,-0.218 0.182,-0.203 0.187,-0.19C0.193,-0.177 0.201,-0.166 0.21,-0.156C0.22,-0.147 0.232,-0.14 0.245,-0.135C0.258,-0.129 0.272,-0.127 0.288,-0.127L0.51,-0.127L0.51,-0.528L0.637,-0.528L0.637,-0.064Z" style="fill-rule:nonzero;"/>
            </g>
            <g transform="matrix(130.107,0,0,130.107,695.373,232.606)">
                <path d="M0.571,-0L0.227,-0C0.209,-0 0.19,-0.003 0.169,-0.009C0.148,-0.015 0.129,-0.026 0.111,-0.04C0.093,-0.054 0.079,-0.072 0.067,-0.095C0.055,-0.118 0.049,-0.145 0.049,-0.178L0.049,-0.35C0.049,-0.362 0.05,-0.375 0.053,-0.388C0.056,-0.402 0.06,-0.415 0.066,-0.428C0.072,-0.441 0.079,-0.454 0.089,-0.466C0.098,-0.478 0.109,-0.488 0.122,-0.498C0.135,-0.507 0.151,-0.514 0.168,-0.52C0.185,-0.525 0.205,-0.528 0.227,-0.528L0.571,-0.528L0.571,-0.401L0.227,-0.401C0.21,-0.401 0.197,-0.397 0.189,-0.388C0.18,-0.38 0.176,-0.367 0.176,-0.349L0.176,-0.178C0.176,-0.162 0.18,-0.149 0.189,-0.14C0.198,-0.131 0.211,-0.127 0.228,-0.127L0.571,-0.127L0.571,-0Z" style="fill-rule:nonzero;"/>
            </g>
            <g transform="matrix(130.107,0,0,130.107,775.038,232.606)">
                <path d="M0.627,-0.353C0.627,-0.335 0.624,-0.316 0.618,-0.296C0.612,-0.276 0.602,-0.257 0.588,-0.24C0.574,-0.222 0.556,-0.208 0.534,-0.196C0.512,-0.184 0.485,-0.178 0.453,-0.178L0.224,-0.178L0.224,-0.299L0.453,-0.299C0.47,-0.299 0.483,-0.304 0.493,-0.315C0.502,-0.325 0.507,-0.338 0.507,-0.354C0.507,-0.371 0.502,-0.384 0.491,-0.393C0.48,-0.403 0.468,-0.407 0.453,-0.407L0.224,-0.407C0.206,-0.407 0.193,-0.402 0.184,-0.391C0.174,-0.381 0.169,-0.368 0.169,-0.352L0.169,-0.175C0.169,-0.158 0.175,-0.145 0.185,-0.135C0.196,-0.126 0.209,-0.121 0.225,-0.121L0.453,-0.121L0.453,-0L0.224,-0C0.206,-0 0.187,-0.003 0.167,-0.009C0.146,-0.015 0.128,-0.025 0.11,-0.039C0.093,-0.053 0.078,-0.071 0.066,-0.094C0.055,-0.116 0.049,-0.143 0.049,-0.175L0.049,-0.353C0.049,-0.371 0.052,-0.39 0.058,-0.41C0.064,-0.43 0.074,-0.449 0.088,-0.467C0.102,-0.484 0.12,-0.499 0.142,-0.51C0.165,-0.522 0.192,-0.528 0.224,-0.528L0.453,-0.528C0.47,-0.528 0.489,-0.525 0.51,-0.519C0.53,-0.512 0.549,-0.502 0.566,-0.489C0.584,-0.475 0.598,-0.457 0.61,-0.434C0.622,-0.412 0.627,-0.385 0.627,-0.353Z" style="fill-rule:nonzero;"/>
            </g>
        </g>
    </g>
</svg>
