<?xml version="1.0" encoding="UTF-8" standalone="no"?>
<!DOCTYPE svg PUBLIC "-//W3C//DTD SVG 1.1//EN" "http://www.w3.org/Graphics/SVG/1.1/DTD/svg11.dtd">
<svg width="100%" height="100%" viewBox="0 0 184 93" version="1.1" xmlns="http://www.w3.org/2000/svg" xmlns:xlink="http://www.w3.org/1999/xlink" xml:space="preserve" xmlns:serif="http://www.serif.com/" style="fill-rule:evenodd;clip-rule:evenodd;stroke-linejoin:round;stroke-miterlimit:2;">
    <g transform="matrix(1,0,0,1,-136.984,-169.155)">
        <g transform="matrix(1,0,0,1,4.58965,-0.866402)">
            <g transform="matrix(131.182,0,0,131.182,123.107,261.874)">
                <path d="M0.649,-0.286L0.249,-0.286L0.249,-0.414L0.649,-0.414L0.649,-0.286ZM0.707,-0L0.249,-0C0.231,-0 0.212,-0.003 0.191,-0.009C0.17,-0.015 0.151,-0.026 0.133,-0.04C0.115,-0.054 0.101,-0.072 0.089,-0.095C0.077,-0.118 0.071,-0.145 0.071,-0.178L0.071,-0.636C0.071,-0.645 0.072,-0.653 0.076,-0.661C0.079,-0.669 0.083,-0.676 0.089,-0.682C0.095,-0.688 0.102,-0.692 0.109,-0.695C0.117,-0.699 0.126,-0.7 0.135,-0.7L0.707,-0.7L0.707,-0.573L0.198,-0.573L0.198,-0.178C0.198,-0.162 0.202,-0.149 0.211,-0.14C0.22,-0.131 0.233,-0.127 0.25,-0.127L0.707,-0.127L0.707,-0Z" style="fill-rule:nonzero;"/>
            </g>
        </g>
        <g transform="matrix(1,-3.25261e-19,3.25261e-19,1,96.2748,0.0797983)">
            <g transform="matrix(131.182,0,0,131.182,123.107,261.874)">
                <path d="M0.772,-0.154C0.772,-0.138 0.77,-0.121 0.764,-0.104C0.759,-0.086 0.75,-0.069 0.738,-0.054C0.726,-0.038 0.71,-0.026 0.69,-0.015C0.671,-0.005 0.647,-0 0.619,-0L0.137,-0C0.128,-0 0.119,-0.002 0.111,-0.005C0.104,-0.008 0.097,-0.013 0.091,-0.018C0.085,-0.024 0.081,-0.031 0.078,-0.039C0.074,-0.046 0.073,-0.055 0.073,-0.064L0.073,-0.636C0.073,-0.645 0.074,-0.653 0.078,-0.661C0.081,-0.669 0.085,-0.676 0.091,-0.682C0.097,-0.688 0.104,-0.692 0.111,-0.695C0.119,-0.699 0.128,-0.7 0.137,-0.7L0.562,-0.7C0.577,-0.7 0.594,-0.697 0.612,-0.692C0.63,-0.686 0.646,-0.677 0.662,-0.665C0.677,-0.653 0.69,-0.637 0.7,-0.618C0.711,-0.598 0.716,-0.574 0.716,-0.546L0.716,-0.522C0.716,-0.5 0.712,-0.475 0.705,-0.449C0.697,-0.424 0.685,-0.399 0.668,-0.376C0.683,-0.367 0.696,-0.357 0.709,-0.344C0.721,-0.332 0.732,-0.318 0.742,-0.301C0.751,-0.285 0.759,-0.267 0.764,-0.246C0.77,-0.226 0.772,-0.203 0.772,-0.178L0.772,-0.154ZM0.646,-0.178C0.646,-0.195 0.643,-0.21 0.638,-0.223C0.632,-0.236 0.625,-0.247 0.616,-0.257C0.606,-0.266 0.595,-0.274 0.582,-0.279C0.568,-0.284 0.553,-0.286 0.537,-0.286L0.25,-0.286L0.25,-0.414L0.479,-0.414C0.496,-0.414 0.511,-0.417 0.524,-0.422C0.538,-0.427 0.549,-0.434 0.559,-0.443C0.568,-0.453 0.575,-0.464 0.58,-0.477C0.585,-0.49 0.588,-0.505 0.588,-0.522L0.588,-0.546C0.588,-0.564 0.579,-0.573 0.562,-0.573L0.2,-0.573L0.2,-0.127L0.619,-0.127C0.621,-0.127 0.624,-0.127 0.627,-0.127C0.63,-0.128 0.633,-0.129 0.636,-0.13C0.638,-0.132 0.641,-0.135 0.643,-0.139C0.645,-0.143 0.646,-0.148 0.646,-0.155L0.646,-0.178Z" style="fill-rule:nonzero;"/>
            </g>
        </g>
    </g>
</svg>
